<svg width="140" height="20" viewBox="0 0 140 20" fill="none" xmlns="http://www.w3.org/2000/svg">
<path d="M16.673 10.1717C17.7437 9.36184 17.1709 7.65517 15.8284 7.65517H13.3992C12.7853 7.65517 12.243 7.25521 12.0617 6.66868L11.3375 4.32637C10.9309 3.01106 9.0691 3.01106 8.66246 4.32637L7.93832 6.66868C7.75699 7.25521 7.21469 7.65517 6.60078 7.65517H4.12961C2.79142 7.65517 2.21592 9.35274 3.27822 10.1665L5.39469 11.7879C5.85885 12.1435 6.05314 12.7501 5.88196 13.3092L5.11296 15.8207C4.71416 17.1232 6.22167 18.1704 7.30301 17.342L9.14861 15.9281C9.65097 15.5432 10.349 15.5432 10.8514 15.9281L12.6807 17.3295C13.7636 18.159 15.2725 17.1079 14.8696 15.8046L14.09 13.2827C13.9159 12.7198 14.113 12.1081 14.5829 11.7526L16.673 10.1717Z" fill="#FFAD33"/>
<path d="M36.673 10.1717C37.7437 9.36184 37.1709 7.65517 35.8284 7.65517H33.3992C32.7853 7.65517 32.243 7.25521 32.0617 6.66868L31.3375 4.32637C30.9309 3.01106 29.0691 3.01106 28.6625 4.32637L27.9383 6.66868C27.757 7.25521 27.2147 7.65517 26.6008 7.65517H24.1296C22.7914 7.65517 22.2159 9.35274 23.2782 10.1665L25.3947 11.7879C25.8588 12.1435 26.0531 12.7501 25.882 13.3092L25.113 15.8207C24.7142 17.1232 26.2217 18.1704 27.303 17.342L29.1486 15.9281C29.651 15.5432 30.349 15.5432 30.8514 15.9281L32.6807 17.3295C33.7636 18.159 35.2725 17.1079 34.8696 15.8046L34.09 13.2827C33.9159 12.7198 34.113 12.1081 34.5829 11.7526L36.673 10.1717Z" fill="#FFAD33"/>
<path d="M56.673 10.1717C57.7437 9.36184 57.1709 7.65517 55.8284 7.65517H53.3992C52.7853 7.65517 52.243 7.25521 52.0617 6.66868L51.3375 4.32637C50.9309 3.01106 49.0691 3.01106 48.6625 4.32637L47.9383 6.66868C47.757 7.25521 47.2147 7.65517 46.6008 7.65517H44.1296C42.7914 7.65517 42.2159 9.35274 43.2782 10.1665L45.3947 11.7879C45.8588 12.1435 46.0531 12.7501 45.882 13.3092L45.113 15.8207C44.7142 17.1232 46.2217 18.1704 47.303 17.342L49.1486 15.9281C49.651 15.5432 50.349 15.5432 50.8514 15.9281L52.6807 17.3295C53.7636 18.159 55.2725 17.1079 54.8696 15.8046L54.09 13.2827C53.9159 12.7198 54.113 12.1081 54.5829 11.7526L56.673 10.1717Z" fill="#FFAD33"/>
<path d="M76.673 10.1717C77.7437 9.36184 77.1709 7.65517 75.8284 7.65517H73.3992C72.7853 7.65517 72.243 7.25521 72.0617 6.66868L71.3375 4.32637C70.9309 3.01106 69.0691 3.01106 68.6625 4.32637L67.9383 6.66868C67.757 7.25521 67.2147 7.65517 66.6008 7.65517H64.1296C62.7914 7.65517 62.2159 9.35274 63.2782 10.1665L65.3947 11.7879C65.8588 12.1435 66.0531 12.7501 65.882 13.3092L65.113 15.8207C64.7142 17.1232 66.2217 18.1704 67.303 17.342L69.1486 15.9281C69.651 15.5432 70.349 15.5432 70.8514 15.9281L72.6807 17.3295C73.7636 18.159 75.2725 17.1079 74.8696 15.8046L74.09 13.2827C73.9159 12.7198 74.113 12.1081 74.5829 11.7526L76.673 10.1717Z" fill="#FFAD33"/>
<path d="M96.673 10.1717C97.7437 9.36184 97.1709 7.65517 95.8284 7.65517H93.3992C92.7853 7.65517 92.243 7.25521 92.0617 6.66868L91.3375 4.32637C90.9309 3.01106 89.0691 3.01106 88.6625 4.32637L87.9383 6.66868C87.757 7.25521 87.2147 7.65517 86.6008 7.65517H84.1296C82.7914 7.65517 82.2159 9.35274 83.2782 10.1665L85.3947 11.7879C85.8588 12.1435 86.0531 12.7501 85.882 13.3092L85.113 15.8207C84.7142 17.1232 86.2217 18.1704 87.303 17.342L89.1486 15.9281C89.651 15.5432 90.349 15.5432 90.8514 15.9281L92.6807 17.3295C93.7636 18.159 95.2725 17.1079 94.8696 15.8046L94.09 13.2827C93.9159 12.7198 94.113 12.1081 94.5829 11.7526L96.673 10.1717Z" fill="#FFAD33"/>
<path opacity="0.5" d="M111.948 15.42H110.674C109.96 14.776 108.7 12.942 108.7 10.31C108.7 7.678 109.932 5.844 110.674 5.2H111.948C111.29 5.956 110.254 7.874 110.254 10.31C110.254 12.746 111.29 14.664 111.948 15.42ZM116.685 15.14C114.249 15.14 113.087 14.076 113.087 12.564C113.087 11.598 113.633 10.604 115.201 10.24C113.969 10.03 113.381 9.134 113.381 8.07C113.381 6.642 114.529 5.48 116.685 5.48C118.827 5.48 119.989 6.642 119.989 8.056C119.989 9.148 119.345 10.03 118.099 10.24C119.681 10.604 120.283 11.598 120.283 12.564C120.283 14.076 119.121 15.14 116.685 15.14ZM116.685 9.666C117.721 9.666 118.309 9.092 118.309 8.308C118.309 7.594 117.847 6.95 116.685 6.95C115.523 6.95 115.061 7.594 115.061 8.308C115.061 9.092 115.523 9.666 116.685 9.666ZM116.685 13.67C118.099 13.67 118.463 12.998 118.463 12.242C118.463 11.416 117.875 10.772 116.685 10.772C115.495 10.772 114.907 11.416 114.907 12.242C114.907 12.998 115.271 13.67 116.685 13.67ZM125.093 15.14C122.657 15.14 121.495 14.076 121.495 12.564C121.495 11.598 122.041 10.604 123.609 10.24C122.377 10.03 121.789 9.134 121.789 8.07C121.789 6.642 122.937 5.48 125.093 5.48C127.235 5.48 128.397 6.642 128.397 8.056C128.397 9.148 127.753 10.03 126.507 10.24C128.089 10.604 128.691 11.598 128.691 12.564C128.691 14.076 127.529 15.14 125.093 15.14ZM125.093 9.666C126.129 9.666 126.717 9.092 126.717 8.308C126.717 7.594 126.255 6.95 125.093 6.95C123.931 6.95 123.469 7.594 123.469 8.308C123.469 9.092 123.931 9.666 125.093 9.666ZM125.093 13.67C126.507 13.67 126.871 12.998 126.871 12.242C126.871 11.416 126.283 10.772 125.093 10.772C123.903 10.772 123.315 11.416 123.315 12.242C123.315 12.998 123.679 13.67 125.093 13.67ZM131.133 15.42H129.859C130.517 14.664 131.553 12.746 131.553 10.31C131.553 7.874 130.517 5.956 129.859 5.2H131.133C131.875 5.844 133.107 7.678 133.107 10.31C133.107 12.942 131.847 14.776 131.133 15.42Z" fill="black"/>
</svg>
