<?xml version="1.0" encoding="UTF-8"?>
<svg id="Registro" xmlns="http://www.w3.org/2000/svg" viewBox="0 0 455.94 594.54">
  <defs>
    <style>
      .cls-1 {
        fill: #1043cf;
      }
    </style>
  </defs>
  <path class="cls-1" d="m180.98,221.39l-14.42,2.92c-9.43.13-18.17.35-26.92.34-3.82,0-7.72-.08-11.43-.86-4.29-.9-6.5.47-8.69,4.21-18.08,30.9-36.38,61.66-54.62,92.47-10.18,17.19-20.38,34.36-30.55,51.56-5.31,8.98-4.09,13.08,5.32,17.83,15.6,7.88,31.19,15.78,46.88,23.49,1.93.95,4.55,1.57,6.57,1.1,51.09-11.79,102.21-23.46,153.18-35.78,25.16-6.08,46.37-18.83,59.56-41.98,5.22-9.15,8.78-19.25,13.23-29.21-23.36-9.37-31.7-27.08-30.96-49.62.49-14.96,7.91-26.38,21.18-34.14.43.77.84,1.16.83,1.54-.23,19.53,13.24,30.88,29.34,35.71,20.95,6.27,40.59,1.82,59.43-7.66,23.07-11.6,41.66-28.43,57.03-49.9-5.95.5-11.27,1.36-16.59,1.34-25.77-.11-50.19-6.75-71.69-20.36-21.91-13.87-44.11-14.99-67.33-6.95-20.59,7.13-40.57,15.98-61.01,23.55-18.71,6.93-37.68,13.16-56.53,19.71-.76.26-1.51.57-1.81.68Z"/>
  <path class="cls-1" d="m85.64,0c-13.36,9.98-24.97,21.78-32.83,36.72-21.76,41.35-21.99,82.31,5.32,121.18,18.55,26.41,45.94,37.95,77.53,40.5,28.38,2.29,54.7-5.62,80.59-15.97,25.19-10.08,50.26-20.5,75.77-29.69,17.7-6.38,36.23-8.57,55.12-5.12,13.77,2.52,25.81,8.61,36.95,16.82.63.47,1.29.9,2.62.89-1.22-2.21-2.39-4.44-3.68-6.61-13.82-23.33-30.9-43.46-55.69-55.77-25-12.41-51.46-13.59-77.96-7.33-23.12,5.46-45.71,13.17-68.57,19.76-10.39,2.99-20.72,6.54-31.32,8.34-27.06,4.61-50.62-2.85-67.82-24.65-17.93-22.72-20.22-48.43-9.44-75.01,3.4-8.38,8.82-15.94,13.42-24.07Z"/>
  <path class="cls-1" d="m344.2,316.02c-5.56,12.2-9.8,23.65-15.75,34.12-15.04,26.44-39.04,41.57-67.14,51.3-17.6,6.1-35.46,11.79-52.29,19.63-12.69,5.91-24.78,13.9-35.64,22.79-31.11,25.47-42.78,59.21-38.99,98.74,1.63,17.02,5.89,33.43,11.95,49.39.27.72.72,1.38,1.34,2.54,5.31-4.57,10.34-8.86,15.34-13.21,55.27-48.14,110.25-96.61,165.92-144.29,22.89-19.6,31.81-43.98,30.33-73.12-.65-12.75-3.29-25.11-8.64-36.75-1.75-3.82-4.19-7.32-6.43-11.16Z"/>
  <path class="cls-1" d="m73.51,254.67c7.54-12.74,14.86-25.09,22.31-37.66C41.64,195.35,15.33,154.5,10.81,98.26,1.72,107.2-3.26,148.51,2.4,172.25c9.42,39.52,36.08,64.25,71.11,82.42Z"/>
</svg>